<?xml version="1.0" encoding="UTF-8" standalone="no"?>
<svg
   width="250"
   height="250"
   viewBox="0 0 250 250"
   version="1.1"
   id="svg25"
   sodipodi:docname="07_logo.svg"
   xmlns:inkscape="http://www.inkscape.org/namespaces/inkscape"
   xmlns:sodipodi="http://sodipodi.sourceforge.net/DTD/sodipodi-0.dtd"
   xmlns="http://www.w3.org/2000/svg"
   xmlns:svg="http://www.w3.org/2000/svg">
  <defs
     id="defs25" />
  <sodipodi:namedview
     id="namedview25"
     pagecolor="#ffffff"
     bordercolor="#000000"
     borderopacity="0.25"
     inkscape:showpageshadow="2"
     inkscape:pageopacity="0.0"
     inkscape:pagecheckerboard="0"
     inkscape:deskcolor="#d1d1d1" />
  <g
     id="surface1">
    <path
       style="fill:#33338c;fill-opacity:1;fill-rule:evenodd;stroke:none"
       d="M 125.13281,21.953125 22.972656,90.425781 65.492188,118.03516 116.29688,83.796875 96.144531,70.558594 123.74609,52.066406 l 59.89844,39.75 -98.265624,65.968754 21.253904,14.07812 122.28125,-81.429686 -0.27734,-0.273438 z m 101.875,0.02734 -42.50781,28.15625 21.25391,14.351562 21.2539,-14.351562 z M 22.269531,227.83594 64.777344,199.67969 43.523438,185.32812 22.269531,199.67969 Z m 0,0"
       id="path1" />
    <path
       style="fill:#33338c;fill-opacity:1;fill-rule:evenodd;stroke:none"
       d="m 124.97656,227.99219 102.26563,-68.54688 -42.5625,-27.64062 -50.85938,34.27343 20.17188,13.25391 -27.62891,18.51172 -59.960936,-39.78906 98.367186,-66.039065 -21.27734,-14.09375 -122.406252,81.511715 0.273437,0.28125 z m 0,0"
       id="path2" />
    <path
       style="fill:#0000ff;fill-opacity:1;fill-rule:evenodd;stroke:#000000;stroke-width:11.5089;stroke-linecap:butt;stroke-linejoin:miter;stroke-miterlimit:4;stroke-opacity:1"
       d="M 800.85937,1982.1484 C 555.50781,1820.4297 322.92969,1667.0703 284.02344,1641.4063 l -70.70313,-46.7579 603.59375,-401.7187 C 1148.9063,971.99219 1423.9453,789.0625 1428.125,786.44531 c 7.5,-4.64844 9.4531,-3.51562 112.1094,64.41406 l 104.4531,69.17969 -489.4531,328.63284 C 886.05469,1429.4531 665.42969,1578.7109 665,1580.3906 c -0.42969,1.6797 134.0625,92.4219 298.94531,201.6407 l 299.72659,198.5546 139.0625,-93.2421 c 132.3828,-88.7891 138.75,-93.4766 133.0469,-98.086 -3.2813,-2.6562 -47.9688,-32.2656 -99.2969,-65.7422 -51.3281,-33.5156 -93.3594,-61.6015 -93.4375,-62.4218 -0.1563,-2.3047 500.2344,-338.9844 503.789,-338.9844 3.1641,0 411.4063,263.9844 417.6563,270.0781 2.6562,2.5781 -123.2813,88.3984 -503.2422,342.9688 -278.7109,186.7187 -508.4766,339.8437 -510.5469,340.2734 -2.0703,0.3906 -204.4922,-131.5625 -449.84373,-293.2813 z m 0,0"
       transform="scale(0.1)"
       id="path3" />
    <path
       style="fill:#00a8d4;fill-opacity:1;fill-rule:evenodd;stroke:#000000;stroke-width:11.5089;stroke-linecap:butt;stroke-linejoin:miter;stroke-miterlimit:4;stroke-opacity:1"
       d="m 962.22656,1650.0391 c -56.09375,-37.461 -101.99219,-69.4532 -101.99219,-71.0547 0,-1.5625 219.17973,-150.0391 487.03123,-329.8828 267.8907,-179.8438 487.461,-328.24223 487.9297,-329.76566 0.4688,-1.52344 -134.0625,-92.26563 -298.9453,-201.64063 L 1236.4063,518.82812 1098.75,611.13281 c -75.7031,50.74219 -137.73438,93.47656 -137.85156,94.92188 -0.0781,1.44531 43.98436,31.5625 98.00786,66.99218 53.9843,35.39063 98.125,65.03907 98.0468,65.85938 -0.1172,1.5625 -501.60154,339.53125 -503.78904,339.53125 -0.66406,0 -95.85937,-61.4453 -211.52344,-136.6016 l -210.35156,-136.60153 20.625,-14.17968 c 76.67969,-52.73438 996.60154,-667.89063 998.63284,-667.73438 2.539,0.19531 1036.25,680.66406 1035.2734,681.52344 -1.0547,0.97656 -1215.5859,809.88285 -1218.5156,811.56255 -1.6797,0.9765 -48.9453,-28.9063 -105.07814,-66.3672 z m 0,0"
       transform="scale(0.1)"
       id="path4" />
    <path
       style="fill:#00a8d4;fill-opacity:1;fill-rule:evenodd;stroke:#000000;stroke-width:11.5089;stroke-linecap:butt;stroke-linejoin:miter;stroke-miterlimit:4;stroke-opacity:1"
       d="m 1952.8906,572.8125 c -57.2265,-38.71094 -103.125,-71.32813 -101.9922,-72.5 1.0938,-1.17188 95.1954,-63.78906 209.1016,-139.21875 l 207.0703,-137.10938 0.7813,137.57813 c 0.625,107.57812 -0.039,138.32031 -3.0469,141.05469 -2.1094,1.95312 -49.7656,34.375 -105.8594,72.07031 l -101.9922,68.51562 z m 0,0"
       transform="scale(0.1)"
       id="path5" />
    <path
       style="fill:#00a8d4;fill-opacity:1;fill-rule:evenodd;stroke:#000000;stroke-width:0.886314;stroke-linecap:butt;stroke-linejoin:miter;stroke-miterlimit:4;stroke-opacity:1"
       d="m 17.209497,164.83951 v -10.67989 l 7.854807,-5.3038 c 4.318939,-2.91845 8.002385,-5.36404 8.186106,-5.43331 0.192756,-0.0753 3.686458,2.12935 8.29152,5.23152 5.969412,4.02077 7.887937,5.42729 7.683133,5.62606 -0.21685,0.20782 -30.624109,20.40202 -31.723421,21.06462 -0.231909,0.13855 -0.292145,-2.02092 -0.292145,-10.5052 z m 0,0"
       transform="scale(1.296976)"
       id="path6" />
    <path
       style="fill:#00ffff;fill-opacity:1;fill-rule:evenodd;stroke:#000000;stroke-width:0.291411;stroke-linecap:butt;stroke-linejoin:miter;stroke-miterlimit:4;stroke-opacity:1"
       d="m 25.413674,117.62634 0.04518,10.61965 -8.134906,-5.27067 z m 0,0"
       transform="scale(1.296976)"
       id="path7" />
    <path
       style="fill:#00ffff;fill-opacity:1;fill-rule:evenodd;stroke:#000000;stroke-width:0.291411;stroke-linecap:butt;stroke-linejoin:miter;stroke-miterlimit:4;stroke-opacity:1"
       d="m 112.39181,122.71028 0.0422,10.62266 -8.1349,-5.27067 z m 0,0"
       transform="scale(1.296976)"
       id="path8" />
    <path
       style="fill:#00ffff;fill-opacity:1;fill-rule:evenodd;stroke:#000000;stroke-width:0.294621;stroke-linecap:butt;stroke-linejoin:miter;stroke-miterlimit:4;stroke-opacity:1"
       d="m 151.42791,33.31667 0.0452,10.863608 -8.1319,-5.391145 z m 0,0"
       transform="scale(1.296976)"
       id="path9" />
    <path
       style="fill:#00ffff;fill-opacity:1;fill-rule:evenodd;stroke:#000000;stroke-width:0.291411;stroke-linecap:butt;stroke-linejoin:miter;stroke-miterlimit:4;stroke-opacity:1"
       d="m 26.805131,64.350386 0.04518,10.622663 -8.134905,-5.270672 z m 0,0"
       transform="scale(1.296976)"
       id="path10" />
    <path
       style="fill:#007f7f;fill-opacity:1;fill-rule:evenodd;stroke:#000000;stroke-width:0.290804;stroke-linecap:butt;stroke-linejoin:miter;stroke-miterlimit:4;stroke-opacity:1"
       d="m 167.59231,22.660877 6.69526,4.981538 -0.0422,-9.589611 z m 0,0"
       transform="scale(1.296976)"
       id="path11" />
    <path
       style="fill:#007f7f;fill-opacity:1;fill-rule:evenodd;stroke:#000000;stroke-width:0.291411;stroke-linecap:butt;stroke-linejoin:miter;stroke-miterlimit:4;stroke-opacity:1"
       d="m 17.57995,164.25823 9.830556,3.93343 -9.595635,6.39709 z m 0,0"
       transform="scale(1.296976)"
       id="path12" />
    <path
       style="fill:#007f7f;fill-opacity:1;fill-rule:evenodd;stroke:#000000;stroke-width:0.291411;stroke-linecap:butt;stroke-linejoin:miter;stroke-miterlimit:4;stroke-opacity:1"
       d="m 162.3638,115.38254 0.3313,15.18857 11.16479,-7.71928 z m 0,0"
       transform="scale(1.296976)"
       id="path13" />
    <path
       style="fill:#007f7f;fill-opacity:1;fill-rule:evenodd;stroke:#000000;stroke-width:0.291411;stroke-linecap:butt;stroke-linejoin:miter;stroke-miterlimit:4;stroke-opacity:1"
       d="M 86.047483,24.651685 106.64828,24.477 96.435224,17.841977 Z m 0,0"
       transform="scale(1.296976)"
       id="path14" />
    <path
       style="fill:#007f7f;fill-opacity:1;fill-rule:evenodd;stroke:#000000;stroke-width:0.291411;stroke-linecap:butt;stroke-linejoin:miter;stroke-miterlimit:4;stroke-opacity:1"
       d="m 106.74767,168.13443 -20.600797,0.1777 10.213056,6.63201 z m 0,0"
       transform="scale(1.296976)"
       id="path15" />
    <path
       style="fill:#007f7f;fill-opacity:1;fill-rule:evenodd;stroke:#000000;stroke-width:0.29551;stroke-linecap:butt;stroke-linejoin:miter;stroke-miterlimit:4;stroke-opacity:1"
       d="m 80.559961,59.43812 0.677658,10.161855 7.24642,-4.85203 z m 0,0"
       transform="scale(1.296976)"
       id="path16" />
    <path
       style="fill:#0000ff;fill-opacity:1;fill-rule:evenodd;stroke:#000000;stroke-width:11.5089;stroke-linecap:butt;stroke-linejoin:miter;stroke-miterlimit:4;stroke-opacity:1"
       d="m 294.6875,2153.2422 -63.125,-24.7266 -0.15625,-125.8593 100.42969,-67.3438 100.39062,-67.3047 25.23438,15.7813 c 66.25,41.4843 166.79687,110.9375 166.79687,115.2343 0,1.9922 -241.5625,164.5313 -263.39844,177.2266 -1.67968,0.9766 -31.48437,-9.375 -66.17187,-23.0078 z m 0,0"
       transform="scale(0.1)"
       id="path17" />
    <path
       style="fill:#0000ff;fill-opacity:1;fill-rule:evenodd;stroke:#000000;stroke-width:11.5089;stroke-linecap:butt;stroke-linejoin:miter;stroke-miterlimit:4;stroke-opacity:1"
       d="m 1017.5391,1677.0703 c -25.27348,-16.3281 -68.71098,-45.2344 -96.56254,-64.2187 -48.32031,-32.9297 -50.35156,-34.7266 -43.51562,-38.3203 3.90625,-2.0704 52.42187,-34.4922 107.73437,-72.0313 55.35159,-37.5391 260.89849,-176.3281 456.75779,-308.3984 391.6407,-264.02348 400,-269.76566 400.1953,-275.23441 0.1954,-5.54688 -0.3906,-5.9375 -315.5468,-216.01563 l -289.8047,-193.20312 -69.2969,46.25 c -173.16406,115.625 -214.375,144.92187 -214.375,152.42187 0,1.21094 18.75,15 41.71875,30.625 22.96875,15.625 42.77345,29.14063 44.02345,30.03906 1.2891,0.89844 4.375,31.05469 6.9141,66.99219 3.5937,51.36719 3.789,66.05469 0.8593,68.75 -2.0312,1.875 -85.93748,58.67188 -186.40623,126.21094 -100.50781,67.5391 -188.08593,126.6797 -194.64843,131.3672 -10.70313,7.7344 -12.53907,8.1641 -18.24219,4.2969 -3.51563,-2.3438 -71.71875,-46.5625 -151.60156,-98.2422 L 350.50781,974.41406 350.35156,904.02344 350.19531,833.67187 731.5625,578.24219 1112.9688,322.85156 1250,321.91406 1387.0313,320.9375 1562.1094,436.25 c 96.3281,63.39844 272.3828,179.49219 391.289,257.92969 118.9063,78.4375 239.2188,157.69531 267.3829,176.09375 28.125,18.4375 50.0781,34.49218 48.7109,35.70312 -6.2891,5.78125 -1200.9766,800.78124 -1203.3594,800.78124 -1.4844,0 -23.3594,-13.3594 -48.5937,-29.6875 z m 0,0"
       transform="scale(0.1)"
       id="path18" />
    <path
       style="fill:#0000ff;fill-opacity:1;fill-rule:evenodd;stroke:#000000;stroke-width:11.5089;stroke-linecap:butt;stroke-linejoin:miter;stroke-miterlimit:4;stroke-opacity:1"
       d="m 1029.2188,1675.4297 c -43.24224,-27.4609 -105.70318,-69.2578 -127.38286,-85.1953 l -16.28907,-11.9922 29.96094,-19.9609 c 16.48438,-10.9766 167.03129,-112.461 334.49219,-225.5079 644.1406,-434.76559 599.0234,-403.47653 597.7344,-414.37496 -0.586,-5.11719 -6.0547,-11.64063 -16.1328,-19.29688 -8.3594,-6.36719 -145.586,-98.75 -304.9219,-205.27344 l -289.7266,-193.75 -98.5156,66.40625 C 962.53906,685 945.23437,698.00781 947.53906,709.96094 c 0.58594,3.16406 18.98438,18.00781 42.14844,34.02343 29.1797,20.15625 41.6797,30.625 43.2031,36.13282 1.1328,4.25781 3.7891,32.30468 5.8594,62.34375 3.2031,46.71875 3.0859,55.11718 -0.625,58.63281 -8.2031,7.69531 -381.67969,258.55465 -384.84375,258.51565 -1.71875,-0.039 -69.25781,-42.8906 -150.07813,-95.2344 L 356.28906,969.21875 V 839.17969 l 64.6875,-43.78907 C 456.5625,771.28906 627.03125,657.03125 799.80469,541.44531 l 314.10161,-210.07812 270.0781,-4.0625 325.8203,214.88281 c 179.2187,118.20312 375.5469,247.73437 436.3281,287.89062 60.7813,40.11719 109.7266,74.25782 108.711,75.85938 -2.4219,3.94531 -1181.7969,789.4531 -1187.5391,790.9766 -1.6797,0.4297 -18.8281,-9.2188 -38.0859,-21.4844 z m 0,0"
       transform="scale(0.1)"
       id="path19" />
    <path
       style="fill:#0000ff;fill-opacity:1;fill-rule:evenodd;stroke:#000000;stroke-width:11.5089;stroke-linecap:butt;stroke-linejoin:miter;stroke-miterlimit:4;stroke-opacity:1"
       d="m 1100.4688,2170.0391 c -6.875,-4.5313 -76.7579,-50.4297 -155.31255,-102.0313 -78.51563,-51.5625 -247.61719,-162.8515 -375.74219,-247.3047 l -232.92969,-153.5547 -1.99218,-15.9765 c -1.09375,-8.7891 -2.10938,-40.8203 -2.26563,-71.211 l -0.3125,-55.2343 549.6875,-365.7422 C 1183.9453,957.8125 1432.6563,793.24219 1434.2578,793.24219 c 7.8125,0 195.4688,124.41406 193.2031,128.08593 -0.8593,1.36719 -116.289,79.53128 -256.4843,173.63278 -296.6407,199.1016 -659.4141,444.1016 -691.01566,466.7188 -12.07032,8.5937 -22.03125,17.3437 -22.10938,19.375 -0.19531,5.3906 15.07813,15.8203 324.88281,221.9531 l 280.85943,186.836 127.1875,-85.5469 c 139.2968,-93.6719 153.0859,-103.7891 153.0859,-112.4219 0,-4.1016 -12.2266,-14.0234 -41.1328,-33.3594 l -41.0938,-27.5 v -141.875 l 23.5938,-16.1718 c 12.9687,-8.9063 99.6484,-67.2266 192.5781,-129.5704 L 1846.8359,1330 l 35,22.5391 c 186.6016,119.9609 217.1485,140.2734 219.1797,145.625 1.25,3.3593 3.0469,48.789 4.0235,100.9765 l 1.7187,94.9219 -201.5234,135.2734 c -110.8203,74.4141 -273.4766,183.4766 -361.3672,242.3438 l -159.8828,107.1094 -135.5078,-0.2735 -135.5078,-0.2343 z m 0,0"
       transform="scale(0.1)"
       id="path20" />
    <path
       style="fill:#0000ff;fill-opacity:1;fill-rule:evenodd;stroke:#000000;stroke-width:11.5089;stroke-linecap:butt;stroke-linejoin:miter;stroke-miterlimit:4;stroke-opacity:1"
       d="m 2012.0313,603.86719 -44.9219,-30.3125 V 431.64062 l 203.9062,-135.15625 44.2578,32.85157 44.2579,32.8125 -0.7813,68.32031 -0.8203,68.28125 -100.5078,67.73437 -100.4688,67.69532 z m 0,0"
       transform="scale(0.1)"
       id="path21" />
    <path
       style="fill:#0000ff;fill-opacity:1;fill-rule:evenodd;stroke:#000000;stroke-width:11.5089;stroke-linecap:butt;stroke-linejoin:miter;stroke-miterlimit:4;stroke-opacity:1"
       d="m 2015.1563,597.22656 -41.7969,-27.8125 -0.1563,-132.42187 98.75,-65.85938 98.75,-65.82031 82.4219,61.40625 -1.6797,61.75781 c -0.8984,33.98438 -2.0703,63.24219 -2.6172,65.03906 -0.7031,2.38282 -167.8125,117.1875 -188.6718,129.57032 -1.7579,1.05468 -22.0313,-10.58594 -45,-25.85938 z m 0,0"
       transform="scale(0.1)"
       id="path22" />
    <path
       style="fill:#00007f;fill-opacity:1;fill-rule:evenodd;stroke:#000000;stroke-width:11.5089;stroke-linecap:butt;stroke-linejoin:miter;stroke-miterlimit:4;stroke-opacity:1"
       d="m 338.00781,2161.6406 c -10.89844,-4.0625 -37.96875,-14.375 -60.15625,-22.9687 l -40.35156,-15.625 0.0781,-58.1641 0.0781,-58.2031 96.17187,-63.9453 c 52.89063,-35.1563 97.10938,-64.2969 98.24219,-64.7266 4.17969,-1.6015 180.23438,116.7188 179.80469,120.8985 -0.0781,0.9375 -6.60156,5.8593 -14.45313,10.9375 -7.85156,5.1171 -62.77343,41.7968 -122.07031,81.6015 -59.25781,39.7656 -109.96094,73.5156 -112.65625,74.9219 -3.20312,1.7187 -11.79687,0.039 -24.6875,-4.7266 z m 0,0"
       transform="scale(0.1)"
       id="path23" />
    <path
       style="fill:#00ffff;fill-opacity:1;fill-rule:evenodd;stroke:#000000;stroke-width:0.291411;stroke-linecap:butt;stroke-linejoin:miter;stroke-miterlimit:4;stroke-opacity:1"
       d="m 38.493976,159.29476 -0.04518,-10.62266 8.134906,5.27368 z m 0,0"
       transform="scale(1.296976)"
       id="path24" />
    <path
       style="fill:#00ffff;fill-opacity:1;fill-rule:evenodd;stroke:#000000;stroke-width:0.291411;stroke-linecap:butt;stroke-linejoin:miter;stroke-miterlimit:4;stroke-opacity:1"
       d="m 165.49307,75.204958 -0.0422,-10.622663 8.1349,5.270672 z m 0,0"
       transform="scale(1.296976)"
       id="path25" />
  </g>
  <path
     style="fill:#000080;stroke:#8e00dd;stroke-width:1.03005;stroke-opacity:0;paint-order:fill markers stroke"
     d="m 201.80035,58.998173 -3.70065,-2.359927 -0.009,-6.269184 -0.009,-6.269183 9.45328,-6.3013 c 5.672,-3.780802 9.6001,-6.212918 9.82034,-6.080343 0.20188,0.121526 1.9285,1.39078 3.83692,2.820563 l 3.46987,2.599608 -0.19531,4.268799 c -0.10741,2.347839 -0.1958,5.027416 -0.19641,5.954615 l -0.001,1.685816 -1.59866,1.067719 c -0.87926,0.587246 -4.94076,3.3571 -9.02555,6.155232 -4.08479,2.798132 -7.58823,5.087512 -7.78543,5.087512 -0.19719,0 -2.02383,-1.061967 -4.05919,-2.359927 z"
     id="path26" />
</svg>
